<?xml version="1.0" standalone="no"?><!DOCTYPE svg PUBLIC "-//W3C//DTD SVG 1.1//EN" "http://www.w3.org/Graphics/SVG/1.1/DTD/svg11.dtd"><svg t="1611545866467" class="icon" viewBox="0 0 1024 1024" version="1.1" xmlns="http://www.w3.org/2000/svg" p-id="4107" xmlns:xlink="http://www.w3.org/1999/xlink" width="200" height="200"><defs><style type="text/css"></style></defs><path d="M636.778885 532.469999l2.290718 0.438648a19.934117 19.934117 0 0 0 5.946118 1.023512 31.290228 31.290228 0 0 0 30.900319-24.369336 154.891502 154.891502 0 0 0 4.873867-41.281656 169.025717 169.025717 0 1 0-338.051434-1.169728 150.066373 150.066373 0 0 0 4.873868 40.160666 32.411217 32.411217 0 1 0 62.970365-15.450159 90.117806 90.117806 0 0 1-2.973059-24.710507 104.154543 104.154543 0 1 1 208.309087 0 111.319128 111.319128 0 0 1-3.168014 25.831496 33.288513 33.288513 0 0 0 23.930688 39.380848z m69.842518 102.692383a30.949057 30.949057 0 0 0 13.987999 19.495469 32.118785 32.118785 0 0 0 17.692139 4.873867 33.483468 33.483468 0 0 0 27.391134-14.621601 307.053638 307.053638 0 1 0-505.566252-1.12099 32.021308 32.021308 0 0 0 21.786187 13.939261 29.779329 29.779329 0 0 0 23.49204-5.604948 32.849865 32.849865 0 0 0 14.036738-21.932402 30.46167 30.46167 0 0 0-5.702425-23.443302 248.95714 248.95714 0 0 1-42.792555-139.53882 241.938771 241.938771 0 1 1 483.780065 0 249.639481 249.639481 0 0 1-42.890032 139.782513 37.236346 37.236346 0 0 0-5.215038 28.122214zM511.76419 0a466.624052 466.624052 0 0 0-327.865051 796.974775 31.680137 31.680137 0 0 0 45.619398 0 32.898604 32.898604 0 0 0 9.747734-24.369336 29.243204 29.243204 0 0 0-9.747734-21.396277 400.095764 400.095764 0 1 1 565.709773-1.023512 32.216263 32.216263 0 0 0-9.747734 22.76096 32.557433 32.557433 0 0 0 9.747734 22.907176 31.436444 31.436444 0 0 0 45.521921 0 459.849377 459.849377 0 0 0 135.980896-329.814598A466.039188 466.039188 0 0 0 511.76419 0z m46.886603 596.707569a52.199118 52.199118 0 0 0-14.32917-14.962772v-92.603478a32.411217 32.411217 0 1 0-64.822434 0v91.579966a75.886113 75.886113 0 0 0-14.621602 15.108988l-216.058536 342.145482a56.049474 56.049474 0 0 0-1.608376 56.731815 54.099927 54.099927 0 0 0 48.397502 29.243204h432.55572a54.197404 54.197404 0 0 0 48.348763-29.243204 55.610826 55.610826 0 0 0-1.46216-56.634337z m-101.084007 133.592702l54.197404-86.364928 54.197404 86.364928H457.566786z m252.904973 228.145727H313.056622l102.78986-163.177076h190.811904l103.813373 163.177076z" fill="#ffffff" p-id="4108"></path></svg>