<?xml version="1.0" standalone="no"?><!DOCTYPE svg PUBLIC "-//W3C//DTD SVG 1.1//EN" "http://www.w3.org/Graphics/SVG/1.1/DTD/svg11.dtd"><svg t="1680486192480" class="icon" viewBox="0 0 1024 1024" version="1.1" xmlns="http://www.w3.org/2000/svg" p-id="2750" xmlns:xlink="http://www.w3.org/1999/xlink" width="200" height="200"><path d="M512.028565 0C229.694737 0 0.034278 229.660459 0.034278 511.994287s229.660459 512.005713 511.994287 512.005713 511.994287-229.74044 511.994287-512.005713S794.328115 0 512.028565 0z m222.587831 387.394919l-271.936265 271.936265a19.789648 19.789648 0 0 1-19.618259 16.430434 19.835351 19.835351 0 0 1-13.825331-5.587262 1.53107 1.53107 0 0 1-0.468462-0.468461L287.715424 528.687517a19.961036 19.961036 0 1 1 28.256234-28.187679l124.542239 124.542239 265.903394-265.914819a20.475201 20.475201 0 0 1 28.199105 0 20.029591 20.029591 0 0 1 0 28.267661z" fill="#3DDA78" p-id="2751"></path></svg>