<?xml version="1.0" standalone="no"?><!DOCTYPE svg PUBLIC "-//W3C//DTD SVG 1.1//EN" "http://www.w3.org/Graphics/SVG/1.1/DTD/svg11.dtd"><svg t="1648708287016" class="icon" viewBox="0 0 1024 1024" version="1.1" xmlns="http://www.w3.org/2000/svg" p-id="8455" xmlns:xlink="http://www.w3.org/1999/xlink" width="200" height="200"><defs><style type="text/css">@font-face { font-family: feedback-iconfont; src: url("//at.alicdn.com/t/font_1031158_u69w8yhxdu.woff2?t=1630033759944") format("woff2"), url("//at.alicdn.com/t/font_1031158_u69w8yhxdu.woff?t=1630033759944") format("woff"), url("//at.alicdn.com/t/font_1031158_u69w8yhxdu.ttf?t=1630033759944") format("truetype"); }
</style></defs><path d="M397.796 0h221.191c20.118 0 27.451 2.081 34.785 6.045 7.333 3.964 13.08 9.712 17.045 17.045s6.045 14.667 6.045 34.784v908.252c0 20.117-2.081 27.45-6.045 34.784-3.964 7.333-9.712 13.08-17.045 17.045-7.334 3.964-14.667 6.045-34.785 6.045h-221.19c-20.118 0-27.451-2.081-34.785-6.045-7.333-3.964-13.081-9.712-17.045-17.045-3.964-7.334-6.045-14.667-6.045-34.784V57.874c0-20.117 2.081-27.45 6.045-34.784 3.964-7.333 9.712-13.08 17.045-17.045S377.68 0 397.796 0z" fill="#FFA100" p-id="8456"></path><path d="M62.244 350.814H280.56c20.613 0 28.144 2.18 35.676 6.144 7.532 4.063 13.478 9.91 17.442 17.442 4.063 7.531 6.144 15.063 6.144 35.676V964.54c0 20.613-2.18 28.144-6.144 35.676s-9.91 13.478-17.442 17.442c-7.532 4.063-15.063 6.144-35.676 6.144H62.244c-20.613 0-28.145-2.18-35.676-6.144s-13.478-9.91-17.442-17.442-6.144-15.063-6.144-35.676V410.076c0-20.613 2.18-28.145 6.144-35.676 4.063-7.532 9.91-13.478 17.442-17.442s15.063-6.144 35.676-6.144z" fill="#F85858" p-id="8457"></path><path d="M725.024 441.986H965.64c16.748 0 22.793 1.784 28.937 5.054 6.145 3.27 10.901 8.126 14.172 14.171 3.27 6.144 5.054 12.19 5.054 28.937v485.59c0 16.748-1.784 22.793-5.054 28.938-3.27 6.144-8.127 10.9-14.172 14.17-6.144 3.271-12.189 5.055-28.937 5.055H725.024c-16.748 0-22.793-1.784-28.937-5.054-6.144-3.27-10.9-8.126-14.171-14.171-3.27-6.145-5.054-12.19-5.054-28.938v-485.59c0-16.747 1.784-22.793 5.054-28.937 3.27-6.144 8.126-10.9 14.171-14.171 6.144-3.27 12.19-5.054 28.937-5.054z" fill="#379DF8" p-id="8458"></path><path d="M497.194 228.92H477.67v-37.657h61.54v186.605h-41.72zM147.668 594.799h-38.649v-10.306c0-10.802 0.198-19.127 0.694-24.974 0.495-5.846 1.982-11.198 4.558-15.955 2.577-4.756 5.352-8.225 8.126-10.207 2.874-2.081 5.65-3.568 8.523-4.559 2.775-0.99 6.045-1.783 9.811-2.576 3.766-0.694 7.333-1.09 10.703-1.09h38.153c2.577 0 6.045 0.495 10.208 1.486 4.26 0.991 7.73 1.982 10.405 3.171a26.006 26.006 0 0 1 7.135 4.36c2.081 1.785 3.865 3.668 5.45 5.65s3.073 4.558 4.46 7.531c1.388 3.072 2.379 5.352 2.973 7.036 0.496 1.685 0.991 4.559 1.388 8.721s0.693 7.135 0.792 8.919 0.199 5.649 0.199 11.694c-0.1 9.712-0.397 16.649-0.991 20.81-0.595 4.163-1.289 7.532-2.18 10.208-0.892 2.676-2.082 5.352-3.47 8.027s-3.071 5.253-4.954 7.532-4.46 4.162-7.829 5.649c-3.37 1.486-5.847 2.477-7.432 2.774-1.586 0.397-8.622 1.289-21.01 2.676l-18.829 2.775c-4.162 0.495-7.135 1.288-8.82 2.18-1.684 0.892-3.072 2.18-4.162 3.964-1.09 1.784-1.784 3.667-1.982 5.847l-0.297 8.72-0.1 2.776c-0.098 1.783 0.2 3.072 0.893 3.864 0.396 0.496 0.892 0.991 1.585 1.388 0.694 0.396 1.289 0.594 1.982 0.594 0.595 0 2.577 0.1 5.847 0.1h72.442v37.46H109.118v-44.596c0-8.72 0.297-14.666 0.892-17.64 0.595-3.072 1.387-6.54 2.378-10.603s2.577-7.73 4.658-11.1 4.36-6.044 6.739-7.927c2.378-1.982 4.955-3.568 7.73-4.955s6.243-2.478 10.306-3.568c4.063-0.991 9.117-1.883 15.162-2.577 5.946-0.693 9.712-1.189 11.199-1.585l4.162-0.793c5.847-0.892 9.613-1.586 11.198-2.081 1.586-0.496 2.973-1.586 4.162-3.37 1.19-1.783 1.982-4.459 2.18-8.126l0.397-10.207c0.495-8.82-0.198-14.37-2.28-16.55-1.783-1.783-3.468-2.774-4.954-2.973-1.487-0.198-4.46-0.297-8.721-0.297h-11.198c-3.172 0-5.748 0.496-7.83 1.586s-3.666 2.18-4.756 3.369c-1.09 1.19-1.784 5.153-2.28 11.694-0.495 6.64-0.594 10.604-0.495 12.09v3.964zM808.566 778.43v-35.973h42.018c1.883 0 4.162-0.297 6.739-0.991 2.676-0.694 4.558-1.487 5.649-2.478 1.189-0.99 1.982-2.378 2.576-4.063s0.892-5.054 0.892-10.009-0.396-8.423-1.288-10.504c-1.19-2.478-2.676-4.262-4.559-5.253s-4.46-1.486-7.63-1.486H832.35c-4.955 0-8.325 0.793-10.109 2.378-1.783 1.586-2.973 2.775-3.369 3.568s-0.694 3.37-0.694 7.73v8.72h-35.874c0-1.982 0-3.369-0.099-4.26 0-0.893-0.099-3.37-0.198-7.334s0-7.73 0.099-11.199c0.396-8.324 1.784-14.765 4.261-19.522 2.478-4.658 5.054-8.027 7.73-10.01s5.847-3.765 9.415-5.45 8.919-2.576 16.153-2.576h51.63c2.677 0 6.145 0.594 10.406 1.783 4.262 1.19 8.325 3.27 12.09 6.046s6.74 7.036 8.82 12.486c2.082 5.45 3.37 10.505 3.766 15.063 0.496 4.559 0.595 9.613 0.496 15.262-0.198 6.64-0.694 12.387-1.685 17.342-0.892 4.955-2.18 8.325-3.766 10.108l-6.243 8.127c3.072 3.369 5.252 6.144 6.739 8.225 1.387 2.081 2.576 4.46 3.468 6.937 0.892 2.576 1.685 5.748 2.379 9.712s0.99 10.9 0.892 21.009c-0.199 6.144-0.496 10.802-0.892 13.874-0.397 3.171-1.19 6.739-2.379 10.802s-2.576 7.432-4.063 10.009c-1.486 2.576-3.865 5.351-7.135 8.324-3.171 2.973-5.748 4.856-7.73 5.649s-5.351 1.685-10.207 2.577c-4.955 0.891-8.027 1.387-9.514 1.387h-34.784l-12.189 0.297a51.72 51.72 0 0 1-12.685-1.883c-4.261-1.189-8.126-3.072-11.595-5.747-3.468-2.676-6.54-6.937-9.216-12.685-2.676-5.847-4.063-11.199-4.261-16.253-0.198-5.054-0.297-9.612-0.297-13.576v-7.83h37.856c-0.1 3.965-0.1 7.433 0 10.406 0.099 3.072 0.693 5.153 1.784 6.244 1.09 1.189 2.279 1.882 3.468 2.279 1.288 0.396 3.766 0.495 7.532 0.495h19.72c4.56 0 8.127-0.892 10.703-2.774 2.577-1.883 4.163-5.253 4.658-10.208 0.496-4.955 0.396-9.712-0.297-14.37-0.595-3.567-1.685-6.243-3.171-7.927-1.487-1.784-3.568-2.577-6.046-2.577h-49.351z" fill="#FFFFFF" p-id="8459"></path></svg>