<?xml version="1.0" standalone="no"?><!DOCTYPE svg PUBLIC "-//W3C//DTD SVG 1.1//EN" "http://www.w3.org/Graphics/SVG/1.1/DTD/svg11.dtd"><svg t="1648708039572" class="icon" viewBox="0 0 1024 1024" version="1.1" xmlns="http://www.w3.org/2000/svg" p-id="5948" xmlns:xlink="http://www.w3.org/1999/xlink" width="200" height="200"><defs><style type="text/css">@font-face { font-family: feedback-iconfont; src: url("//at.alicdn.com/t/font_1031158_u69w8yhxdu.woff2?t=1630033759944") format("woff2"), url("//at.alicdn.com/t/font_1031158_u69w8yhxdu.woff?t=1630033759944") format("woff"), url("//at.alicdn.com/t/font_1031158_u69w8yhxdu.ttf?t=1630033759944") format("truetype"); }
</style></defs><path d="M275.2 1011.2L192 876.8H38.4L217.6 576 448 710.4l-172.8 300.8z m473.6 0l83.2-140.8h153.6L806.4 576 576 710.4l172.8 300.8z" fill="#EE4973" p-id="5949"></path><path d="M179.2 384c0 121.6 64 230.4 166.4 294.4 102.4 57.6 236.8 57.6 339.2 0s166.4-172.8 166.4-294.4C851.2 198.4 697.6 44.8 512 44.8 332.8 44.8 179.2 198.4 179.2 384z" fill="#FFCD29" p-id="5950"></path><path d="M518.4 12.8C313.6 12.8 147.2 179.2 147.2 384s166.4 377.6 377.6 377.6c204.8 0 377.6-166.4 377.6-377.6C896 179.2 729.6 12.8 518.4 12.8z m0 697.6C339.2 710.4 192 563.2 192 384S339.2 57.6 518.4 57.6s326.4 147.2 326.4 326.4-140.8 326.4-326.4 326.4z" fill="#FFCD29" p-id="5951"></path></svg>