<?xml version="1.0" standalone="no"?><!DOCTYPE svg PUBLIC "-//W3C//DTD SVG 1.1//EN" "http://www.w3.org/Graphics/SVG/1.1/DTD/svg11.dtd"><svg t="1611542359605" class="icon" viewBox="0 0 1024 1024" version="1.1" xmlns="http://www.w3.org/2000/svg" p-id="4980" xmlns:xlink="http://www.w3.org/1999/xlink" width="200" height="200"><defs><style type="text/css"></style></defs><path d="M931.84 286.72c0 46.08-35.84 81.92-81.92 81.92V194.56h81.92v92.16z m-291.84 51.2l-51.2 51.2 10.24 71.68c0 5.12 0 10.24-5.12 15.36-5.12 0-5.12 5.12-10.24 5.12h-5.12l-61.44-35.84-61.44 30.72c-5.12 5.12-10.24 5.12-15.36 0-5.12-5.12-10.24-10.24-5.12-15.36l10.24-71.68-51.2-51.2c-5.12-5.12-5.12-10.24-5.12-20.48s10.24-10.24 15.36-10.24l66.56-10.24 30.72-66.56c5.12-5.12 10.24-10.24 15.36-10.24 5.12 0 10.24 5.12 15.36 10.24l30.72 66.56 66.56 10.24c5.12 0 10.24 5.12 15.36 10.24 0 10.24 0 15.36-5.12 20.48z m-460.8 30.72c-46.08 0-81.92-35.84-81.92-81.92V189.44h81.92v179.2z m783.36-271.36h-112.64v-30.72C849.92 30.72 819.2 0 788.48 0H240.64c-30.72 0-61.44 30.72-61.44 66.56v30.72H66.56C30.72 97.28 0 128 0 158.72v128C0 384 76.8 460.8 174.08 460.8c15.36 153.6 133.12 276.48 286.72 296.96v133.12H353.28c-35.84 0-66.56 30.72-66.56 66.56v46.08c0 10.24 5.12 15.36 15.36 15.36H716.8c10.24 0 15.36-5.12 15.36-15.36v-46.08c0-35.84-30.72-66.56-66.56-66.56h-112.64v-133.12c153.6-20.48 271.36-148.48 286.72-296.96 97.28 0 174.08-76.8 174.08-174.08V158.72c15.36-35.84-15.36-61.44-51.2-61.44z" p-id="4981" fill="#f4ea29"></path></svg>